<svg width="105" height="24" viewBox="0 0 105 24" fill="none" xmlns="http://www.w3.org/2000/svg">
<g clip-path="url(#clip0_218_1524)">
<path d="M0 0.581665H6.76457V9.65817H14.8613V0.581665H21.6259V23.388H14.8613V14.8957H6.76457V23.388H0V0.581665Z" fill="#00659F"/>
<path d="M54.4404 0.581665H47.6758V23.388H54.4404V0.581665Z" fill="#00659F"/>
<path d="M81.0105 23.388H72.9112L67.5774 14.9943L65.0419 17.7914V23.388H58.2773V0.581665H65.0419V9.72392L72.6837 0.581665H80.4897L72.1958 9.82002L81.0105 23.388Z" fill="#00659F"/>
<path d="M93.0055 0C86.3799 0 81.0107 5.37408 81.0107 12C81.0107 18.6259 86.3799 24 93.0055 24C99.631 24 105 18.6285 105 12C105 5.37155 99.631 0 93.0055 0ZM93.0055 18.0392C89.6712 18.0392 86.9714 15.3357 86.9714 12.0025C86.9714 8.66934 89.6737 5.96586 93.0055 5.96586C96.3372 5.96586 99.042 8.66934 99.042 12.0025C99.042 15.3357 96.3397 18.0392 93.0055 18.0392Z" fill="#00659F"/>
<path d="M25.4634 9.36481V23.388H42.9941V18.1834H32.2279V14.5694H42.9941V9.36481H25.4634Z" fill="#00659F"/>
<path d="M42.9916 0.581665H25.4634V5.7863H42.9916V0.581665Z" fill="#00659F"/>
</g>
<defs>
<clipPath id="clip0_218_1524">
<rect width="105" height="24" fill="white"/>
</clipPath>
</defs>
</svg>
